<svg width="20" height="20" viewBox="0 0 20 20" fill="none" xmlns="http://www.w3.org/2000/svg">
<path d="M8.8895 6.34226C6.89862 9.12076 3.65766 10.9268 0 10.9268V9.07445C3.42616 9.07445 6.43563 7.17581 7.96351 4.30469C7.96351 4.30469 8.19501 4.9067 8.42651 5.41609C8.658 5.92548 8.8895 6.29595 8.8895 6.29595V6.34226Z" fill="#85BC20"/>
<path d="M6.34187 11.1094C9.11983 13.1006 10.9255 16.3422 10.9255 20.0006H9.07354C9.07354 16.5738 7.12896 13.5637 4.30469 12.0355C4.30469 12.0355 4.90658 11.804 5.41588 11.5725C5.92517 11.3409 6.29557 11.1094 6.29557 11.1094H6.34187Z" fill="black"/>
<path d="M13.6579 8.89121C10.8799 6.89995 9.07422 3.65836 9.07422 0H10.9262C10.9262 3.42682 12.8708 6.43687 15.695 7.96504C15.695 7.96504 15.0932 8.19659 14.5839 8.42813C14.0746 8.65967 13.7042 8.89121 13.7042 8.89121H13.6579Z" fill="#E5202E"/>
<path d="M11.1113 13.6587C13.1022 10.8802 16.3432 9.07422 20.0008 9.07422V10.9266C16.5747 10.9266 13.5652 12.8252 12.0373 15.6963C12.0373 15.6963 11.8058 15.0943 11.5743 14.5849C11.3428 14.0755 11.1113 13.7051 11.1113 13.7051V13.6587Z" fill="#007AC3"/>
</svg>
