<svg width="20" height="20" viewBox="0 0 20 20" fill="none" xmlns="http://www.w3.org/2000/svg">
<g clip-path="url(#clip0_4142_13430)">
<path d="M8.88889 6.29601C6.94444 9.07379 3.61111 10.9256 0 10.9256V9.07379C3.42593 9.07379 6.38889 7.12934 7.96296 4.35156C7.96296 4.35156 8.14815 4.99971 8.42593 5.46267C8.7037 5.92564 8.88889 6.3886 8.88889 6.3886V6.29601Z" fill="#85BC20"/>
<path d="M6.29601 11.1133C9.07379 13.0577 10.9256 16.2985 10.9256 20.0022H9.07379C9.07379 16.5762 7.12934 13.6133 4.35156 12.0392C4.35156 12.0392 4.99971 11.854 5.46267 11.5762C5.92564 11.2985 6.3886 11.1133 6.3886 11.1133H6.29601Z" fill="white"/>
<path d="M13.7019 8.88889C10.9241 6.94444 9.07227 3.61111 9.07227 0H10.9241C10.9241 3.42593 12.8686 6.38889 15.6463 7.96296C15.6463 7.96296 14.9982 8.14815 14.5352 8.42593C14.0723 8.7037 13.6093 8.88889 13.6093 8.88889H13.7019Z" fill="#E5202E"/>
<path d="M11.1133 13.6999C13.0577 10.9222 16.2985 9.07031 20.0022 9.07031V10.9222C16.5762 10.9222 13.6133 12.8666 12.0392 15.6444C12.0392 15.6444 11.854 14.9962 11.5762 14.5333C11.2985 14.0703 11.1133 13.6073 11.1133 13.6073V13.6999Z" fill="#409BD2"/>
</g>
<defs>
<clipPath id="clip0_4142_13430">
<rect width="20" height="20" fill="white"/>
</clipPath>
</defs>
</svg>
