<svg width="214" height="34" viewBox="0 0 214 34" fill="none" xmlns="http://www.w3.org/2000/svg">
<path d="M60.8287 29.0216L57.3259 19.1894C57.0311 18.386 56.6911 17.3677 56.3397 16.2136H56.283C55.9316 17.3451 55.5915 18.2955 55.2741 19.1894L51.6239 29.0216H50.0595L43.428 9.87754H45.7179L49.9802 22.6063C50.3316 23.6812 50.649 24.6316 50.9097 25.582H50.9664C51.2271 24.6542 51.6012 23.7038 51.9753 22.6629L55.2854 13.6339L53.9818 9.87754H56.215L60.5906 22.4819C60.9647 23.5794 61.3501 24.5072 61.6109 25.4349H61.6675C61.8943 24.4732 62.155 23.6133 62.5064 22.5724L66.678 9.87754H68.9112L62.393 29.0216H60.8287Z" fill="black"/>
<path d="M78.9435 27.6073C77.8666 28.7048 76.3589 29.3158 74.5905 29.3158C72.8221 29.3158 71.4051 28.7388 70.3282 27.6413C69.0813 26.374 68.4124 24.428 68.4124 22.1764C68.4124 19.9248 69.1153 18.0466 70.3282 16.7681C71.4278 15.6366 72.9015 15.003 74.6132 15.003C76.3249 15.003 77.8553 15.6366 78.9662 16.7681C80.1792 18.0353 80.882 19.9248 80.882 22.1764C80.882 24.428 80.1905 26.3401 78.9435 27.6186M74.6245 16.7907C72.0399 16.7907 70.5663 18.8725 70.5663 22.1085C70.5663 25.3444 72.0966 27.4829 74.6472 27.4829C77.1978 27.4829 78.7281 25.3444 78.7281 22.1085C78.7281 18.8725 77.2545 16.7907 74.6132 16.7907" fill="black"/>
<path d="M86.0512 29.3158C84.3735 29.3158 83.6479 28.2409 83.6479 26.804V8.55375H85.7678V25.8536C85.7678 27.1547 86.0852 27.415 86.9014 27.415C87.0487 27.415 87.2755 27.415 87.6269 27.3358L87.8876 28.8632C87.2528 29.18 86.754 29.3271 86.0625 29.3271" fill="black"/>
<path d="M94.043 29.3158C92.0706 29.3158 91.1183 28.1617 91.1183 26.3967V17.1414H88.8852V15.3537H91.1183V12.3441L93.2382 11.62V15.3537H97.4438L96.6956 17.1414H93.2495V25.7631C93.2495 26.9171 93.6803 27.4376 94.5871 27.4376C95.5734 27.4376 96.4689 26.8832 97.0244 26.4532L97.6932 27.9581C96.6843 28.7048 95.3467 29.3158 94.077 29.3158" fill="black"/>
<path d="M100.777 22.5384C100.777 25.1408 102.284 27.4602 105.322 27.4602C106.479 27.4602 107.76 26.9963 108.564 26.4759L109.199 27.9241C108.213 28.7388 106.479 29.3158 104.88 29.3158C100.595 29.3158 98.5094 25.8196 98.5094 21.9161C98.5094 18.0126 100.765 15.003 104.075 15.003C107.612 15.003 109.551 17.809 109.551 22.0632V22.5498H100.777V22.5384ZM104.109 16.7907C102.08 16.7907 100.811 18.5784 100.811 20.7508H107.272C107.272 18.8386 106.195 16.7907 104.109 16.7907Z" fill="black"/>
<path d="M118.88 17.4582C118.585 17.3451 118.155 17.2206 117.576 17.2206C116.772 17.2206 115.434 17.9108 114.561 18.8725V29.0216H112.441V15.3424H114.176L114.47 16.9038C116.352 15.1953 117.395 14.9917 118.381 14.9917C118.993 14.9917 119.515 15.2293 119.776 15.399L118.88 17.4582Z" fill="black"/>
<path d="M195.001 22.5384C195.001 25.1408 196.509 27.4602 199.547 27.4602C200.703 27.4602 201.984 26.9963 202.789 26.4759L203.424 27.9241C202.437 28.7388 200.703 29.3158 199.105 29.3158C194.808 29.3158 192.734 25.8196 192.734 21.9161C192.734 18.0126 194.99 15.003 198.3 15.003C201.837 15.003 203.775 17.809 203.775 22.0632V22.5498H195.001V22.5384ZM198.334 16.7907C196.305 16.7907 195.024 18.5784 195.024 20.7508H201.485C201.485 18.8386 200.408 16.7907 198.322 16.7907" fill="black"/>
<path d="M213.104 17.4582C212.821 17.3451 212.379 17.2206 211.801 17.2206C210.996 17.2206 209.658 17.9108 208.785 18.8725V29.0216H206.666V15.3424H208.4L208.695 16.9038C210.577 15.1953 211.619 14.9917 212.606 14.9917C213.218 14.9917 213.739 15.2293 214 15.399L213.104 17.4582Z" fill="black"/>
<path d="M124.253 29.3158C122.281 29.3158 121.091 28.7953 120.195 28.2749L121 26.623C121.635 27.0303 122.825 27.6073 124.333 27.6073C126.01 27.6073 127.235 26.8493 127.235 25.582C127.235 22.2329 121 23.4097 121 18.6123C121 16.6436 122.428 15.003 125.557 15.003C127.008 15.003 128.108 15.3198 129.003 15.7271V17.5827C128.051 17.1754 127.065 16.7794 125.636 16.7794C124.208 16.7794 123.086 17.2659 123.086 18.5105C123.086 21.5767 129.434 20.796 129.434 25.2765C129.434 28.1391 127.053 29.3271 124.242 29.3271" fill="black"/>
<path d="M148.183 29.0216L140.566 20.4H140.532V29.0216H138.423V9.95674H140.532V18.7255H140.566L147.662 10.0246H150.303L142.448 19.393L150.995 29.0216H148.183Z" fill="black"/>
<path d="M155.427 29.3158C153.749 29.3158 153.024 28.2409 153.024 26.804V8.55375H155.144V25.8536C155.144 27.1547 155.461 27.415 156.277 27.415C156.425 27.415 156.651 27.415 157.003 27.3358L157.264 28.8632C156.629 29.18 156.13 29.3271 155.438 29.3271" fill="black"/>
<path d="M168.52 29.0216L167.976 27.6073C166.956 28.4785 165.369 29.3158 163.544 29.3158C161.719 29.3158 159.372 28.3654 159.372 24.5185V15.3537H161.481V24.3261C161.481 26.6116 162.433 27.5055 164.145 27.5055C165.856 27.5055 167.217 26.408 167.795 25.6839V15.3537H169.914V23.3078C169.914 27.6186 170.005 28.4559 170.209 29.0329H168.52V29.0216Z" fill="black"/>
<path d="M187.338 29.0216H185.422L181.999 18.0579H181.919L178.53 29.0216H176.671L172.091 15.3424H174.233L177.6 26.1364H177.68L181.08 15.3424H182.985L186.408 26.1591H186.499L189.798 15.3424H191.85L187.338 29.0216Z" fill="black"/>
<path d="M21.0395 0.486523C19.7472 0.169717 18.4096 0 17.0266 0C15.6436 0 14.2946 0.169717 13.0137 0.486523V4.97837H21.0509V0.486523H21.0395Z" fill="#A6D1EA"/>
<path d="M21.0509 12.989H13.0137V21.011H21.0509V12.989Z" fill="#E5202E"/>
<path d="M21.0509 21.011H13.0137V29.0329H21.0509V21.011Z" fill="#A4CD58"/>
<path d="M13.0137 33.5135C14.306 33.8303 15.6436 34 17.0266 34C18.4096 34 19.7472 33.8303 21.0395 33.5135V29.0216H13.0023V33.5135H13.0137Z" fill="#409BD2"/>
<path d="M21.0509 4.96705H13.0137V12.989H21.0509V4.96705Z" fill="#D4E8B1"/>
<path d="M13.0137 12.989H4.97648V21.011H13.0137V12.989Z" fill="#D4E8B1"/>
<path d="M13.0137 21.011H4.97648V29.0329H13.0137V21.011Z" fill="#85BC20"/>
<path d="M4.97648 29.0216C7.15298 31.194 9.91895 32.7667 13.0137 33.5135V29.0216H4.97648Z" fill="#007AC3"/>
<path d="M13.0137 4.96705H4.97648V12.989H13.0137V4.96705Z" fill="#A4CD58"/>
<path d="M13.0137 0.486523C9.91895 1.23328 7.15298 2.80599 4.97648 4.97837H13.0137V0.486523Z" fill="#409BD2"/>
<path d="M4.97648 29.0216V20.9997H0.47611C1.22428 24.0772 2.79998 26.8493 4.97648 29.0216Z" fill="#007AC3"/>
<path d="M4.97648 4.96705C2.79998 7.13943 1.22428 9.90017 0.47611 12.989H4.97648V4.96705Z" fill="#409BD2"/>
<path d="M29.0767 12.989H21.0395V21.011H29.0767V12.989Z" fill="#A4CD58"/>
<path d="M29.0767 21.011H21.0395V29.0329H29.0767V21.011Z" fill="#85BC20"/>
<path d="M29.0767 29.0216H21.0395V33.5135C24.1229 32.7667 26.9002 31.194 29.0767 29.0216Z" fill="#007AC3"/>
<path d="M29.0767 4.96705H21.0395V12.989H29.0767V4.96705Z" fill="#85BC20"/>
<path d="M21.0395 0.486523V4.97837H29.0767C26.9002 2.80599 24.1342 1.23328 21.0395 0.486523Z" fill="#007AC3"/>
<path d="M29.0767 29.0216C31.2532 26.8493 32.8289 24.0885 33.5771 20.9997H29.0767V29.0216Z" fill="#007AC3"/>
<path d="M29.0767 4.96705V12.989H33.5771C32.8289 9.90017 31.2532 7.13943 29.0767 4.96705Z" fill="#007AC3"/>
<path d="M0.487446 12.989C0.17004 14.2789 0 15.614 0 16.9943C0 18.3747 0.17004 19.7098 0.487446 20.9997H4.98782V12.9777H0.487446V12.989Z" fill="#A6D1EA"/>
<path d="M33.5771 21.011C33.8945 19.7211 34.0645 18.386 34.0645 17.0057C34.0645 15.6253 33.8945 14.2902 33.5771 13.0003H29.0767V21.0223H33.5771V21.011Z" fill="#409BD2"/>
<path d="M34.0532 26.5324H34.824C34.9827 26.5324 35.1188 26.5551 35.2208 26.589C35.5495 26.6795 35.7082 26.9285 35.7082 27.2113C35.7082 27.6073 35.4022 27.8223 35.1188 27.8902C35.2888 27.9807 35.5495 28.4785 35.8443 29.0216H35.2661C34.9374 28.4333 34.7447 28.0373 34.6427 28.026H34.552V29.0216H34.0532V26.5324ZM34.688 27.63C34.9487 27.63 35.1754 27.5281 35.1754 27.2679C35.1754 27.1095 35.1074 26.9963 34.9714 26.9624C34.892 26.9285 34.8127 26.9285 34.6993 26.9285H34.5633V27.63H34.688Z" fill="black"/>
<path d="M37.1706 27.811C37.1706 29.0895 36.139 30.1191 34.858 30.1191C33.5771 30.1191 32.5455 29.0895 32.5455 27.811C32.5455 26.5325 33.5771 25.5028 34.858 25.5028C36.139 25.5028 37.1706 26.5325 37.1706 27.811ZM34.8467 25.9894C33.8378 25.9894 33.0216 26.804 33.0216 27.811C33.0216 28.818 33.8378 29.6326 34.8467 29.6326C35.8556 29.6326 36.6718 28.818 36.6718 27.811C36.6718 26.804 35.8556 25.9894 34.8467 25.9894Z" fill="black"/>
</svg>
